{"title":"Showtime (2002) - DVDRip - MP3 - ENG","uid":4364296,"size":734028587,"categoryP":"video","categoryS":"movies","magnet":"?xt=urn:btih:8c71cf823d00def054bf52c517130f3698a79efb&amp;dn=Showtime+%282002%29+-+DVDRip+-+MP3+-+ENG&amp;tr=udp%3A%2F%2Ftracker.openbittorrent.com%3A80&amp;tr=udp%3A%2F%2Fopen.demonii.com%3A1337&amp;tr=udp%3A%2F%2Ftracker.coppersurfer.tk%3A6969&amp;tr=udp%3A%2F%2Fexodus.desync.com%3A6969","seeders":1,"leechers":0,"uploader":"206andy206","files":-1,"time":1219821411,"description":"IMDB: http://www.imdb.com/title/tt0284490/\nUser Rating: 5.3/10 (16,595 votes)\nRelease Date: 3 May 2002 (UK)\nGenre: Action | Comedy \n\nPlot:\n                                                                                                        \nNo-nonsense L.A.P.D. detective Mitch Preston (Robert De Niro) is a man of few words, little patience and even less style. When a job goes horribly wrong, Mitch receives the usual punishment.....forced participation in a reality-TV show about cops.                                                            \nWhen the show's producer, Chase Rensi (Rene Russo - The Thomas Crown Affair) swoops in and sells the Chief of Police on the PR benefits involved if Mitch plays ball, there really is no way out.                      \n                                                                                                            \nEven worse, his TV partner is Trey Sellers (Eddie Murphy), a fast-talking rookie police officer who instead of being a cop, would much rather play at being one on TV. Together, they are poised to become stars of the biggest hit reality show in television history. For Mitch it's a living hell. For Trey, it's a dream come true.                                                                                          \n                                                                                                            \nIt's Showtime!                                                                                              \nDe Niro and Murphy team up for thrills, spills and a lot of laughs in this spoof cop caper with a twist. \n\nCast:\nRobert De Niro\t... \tDet. Mitch Preston\nRachael Harris\t... \tTeacher (as Rachel Harris)\nEddie Murphy\t... \tOfficer Trey Sellars\nZaid Farid\t... \tPolice Captain Ben\nMos Def\t        ...   \tLazy Boy\n\n\n\n\nGeneral\nComplete name                    : Showtime (2002) - DVDRip - MP3 - ENG.avi\nFormat                           : AVI\nFormat/Info                      : Audio Video Interleave\nFile size                        : 700 MiB\nDuration                         : 1h 31mn\nOveral bit rate                  : 1070 Kbps\nIAS1                             : English\n\nVideo\nFormat                           : MPEG-4 Visual\nFormat profile                   : Streaming Video@L1\nCodec ID                         : XVID\nDuration                         : 1h 31mn\nBit rate                         : 935 Kbps\nWidth                            : 608 pixels\nHeight                           : 256 pixels\nDisplay aspect ratio             : 2.35\nFrame rate                       : 25.000 fps\nResolution                       : 8 bits\nColorimetry                      : 4:2:0\nScan type                        : Progressive\nBits/(Pixel*Frame)               : 0.240\nStream size                      : 611 MiB (87%)\n\nAudio\nFormat                           : MPEG Audio\nFormat version                   : Version 1\nFormat profile                   : Layer 3\nCodec ID                         : 55\nCodec ID/Hint                    : MP3\nDuration                         : 1h 31mn\nBit rate mode                    : Constant\nBit rate                         : 128 Kbps\nChannel(s)                       : 2 channels\nSampling rate                    : 48.0 KHz\nResolution                       : 16 bits\nStream size                      : 83.8 MiB (12%)\nWriting library                  : LAME3.97 \nEncoding settings                : CBR\n\n\nTrackers:  &lt;a href=&quot;\nhttp://www.torrent-downloads.to:5869/announce&quot; rel=&quot;nofollow&quot; target=&quot;_NEW&quot;&gt;\nhttp://www.torrent-downloads.to:5869/announce&lt;/a&gt;\nhttp://open.tracker.thepiratebay.se:80/announce\nhttp://tpb.tracker.thepiratebay.se:80/announce\nhttp://vip.tracker.thepiratebay.se/announce\n\n\nInfo Hash: 8C71CF823D00DEF054BF52C517130F3698A79EFB\n\n\n\nEnjoy, and please seed.","torrent":{"xt":"urn:btih:8c71cf823d00def054bf52c517130f3698a79efb","amp;dn":"Showtime+%282002%29+-+DVDRip+-+MP3+-+ENG","amp;tr":["udp%3A%2F%2Ftracker.openbittorrent.com%3A80","udp%3A%2F%2Fopen.demonii.com%3A1337","udp%3A%2F%2Ftracker.coppersurfer.tk%3A6969","udp%3A%2F%2Fexodus.desync.com%3A6969"],"infoHash":"8c71cf823d00def054bf52c517130f3698a79efb","infoHashBuffer":{"type":"Buffer","data":[140,113,207,130,61,0,222,240,84,191,82,197,23,19,15,54,152,167,158,251]},"announce":[],"urlList":[]}}